<mxfile host="app.diagrams.net" modified="2024-01-02T10:52:14.373Z" agent="Mozilla/5.0 (Windows NT 10.0; Win64; x64; rv:121.0) Gecko/20100101 Firefox/121.0" version="22.1.16" etag="knCBV9ejhaF0PWL7tJ-b" type="github">
  <diagram name="Page-1" id="YEio5vCUJ31K6a2HCPsg">
    <mxGraphModel>
      <root>
        <mxCell id="0" />
        <mxCell id="1" parent="0" />
      </root>
    </mxGraphModel>
  </diagram>
</mxfile>
